# xmcd CD database file
#
# Track frame offsets:
#	150
#	16848
#	33454
#	51623
#	69463
#	86805
#	108702
#	122747
#	139135
#	157447
#	173312
#	190106
#	204756
#
# Disc length: 2937 seconds
#
# Revision: 4
# Processed by: cddbd v1.5.2PL0 Copyright (c) Steve Scherf et al.
# Submitted via: CDex 2.21
#
DISCID=b60b770d
DTITLE=Aaron Tippin - Now and Then
DYEAR=2006
DGENRE=Country
TTITLE0=Ready to Rock (In a Country Kinda Way)
TTITLE1=I Could Not Stop Myself
TTITLE2=He Believed
TTITLE3=Whole Lotta Love On the Line
TTITLE4=Working Man's Ph.d
TTITLE5=The Call of the Wild
TTITLE6=There Ain't Nothin' Wrong With 
TTITLE7=That's As Close As I'll Get to Loving You
TTITLE8=I Got It Honest
TTITLE9=I Wouldn't Have It Any Other Way
TTITLE10=I Wonder How Far It Is Over You
TTITLE11=Honky-tonk Superman
TTITLE12=My Blue Angel
EXTD=YEAR: 2006
EXTT0=
EXTT1=
EXTT2=
EXTT3=
EXTT4=
EXTT5=
EXTT6=
EXTT7=
EXTT8=
EXTT9=
EXTT10=
EXTT11=
EXTT12=
PLAYORDER=
